<svg width="320" height="96" viewBox="0 0 320 96" fill="none" xmlns="http://www.w3.org/2000/svg">
<path d="M15.3783 43.0414C16.349 40.7535 15.2811 38.1119 12.9932 37.1413C10.7053 36.1707 8.06372 37.2386 7.09309 39.5265L15.3783 43.0414ZM197.129 36.7885L196.413 41.2311L197.129 36.7885ZM251.676 54.5165L254.55 57.9795V57.9795L251.676 54.5165ZM318.928 23.7093C319.989 21.4618 319.027 18.7799 316.78 17.719L280.155 0.431573C277.907 -0.629273 275.225 0.332697 274.164 2.58019C273.104 4.82769 274.066 7.50962 276.313 8.57047L308.869 23.9371L293.502 56.4927C292.441 58.7402 293.403 61.4221 295.651 62.483C297.898 63.5438 300.58 62.5818 301.641 60.3344L318.928 23.7093ZM7.09309 39.5265C1.67234 52.304 -0.690138 62.4169 0.173996 70.1305C0.617784 74.0919 1.9276 77.5487 4.2196 80.3394C6.50917 83.1271 9.53785 84.9568 12.9393 86.0643C19.5473 88.2159 28.0412 87.7972 37.2153 86.1457C46.5251 84.4699 57.1788 81.3959 68.442 77.6604C79.7211 73.9196 91.7616 69.4639 103.841 64.9868C115.951 60.4985 128.104 55.987 139.73 52.0822C151.362 48.1747 162.351 44.9147 172.112 42.9097C181.942 40.8906 190.168 40.2238 196.413 41.2311L197.846 32.3459C189.999 31.0804 180.512 31.9964 170.301 34.0938C160.021 36.2054 148.638 39.5957 136.864 43.5506C125.082 47.5081 112.792 52.0711 100.713 56.5477C88.6052 61.0355 76.7136 65.4349 65.6088 69.1179C54.488 72.8062 44.306 75.7247 35.6208 77.2881C26.7998 78.876 20.1392 78.9436 15.7257 77.5065C13.6165 76.8198 12.1677 75.8364 11.1746 74.6273C10.1839 73.421 9.40579 71.697 9.11805 69.1285C8.51911 63.7822 10.119 55.4386 15.3783 43.0414L7.09309 39.5265ZM196.413 41.2311C231.7 46.9226 256.836 53.4261 269.672 60.7535C276.236 64.5003 278.148 67.6405 278.295 69.762C278.44 71.8612 277.018 75.4256 270.33 80.4685L275.749 87.6544C282.925 82.2426 287.753 76.0909 287.273 69.1418C286.795 62.2149 281.207 56.9745 274.134 52.9372C259.697 44.6965 233.014 38.0183 197.846 32.3459L196.413 41.2311ZM270.33 80.4685C263.957 85.2743 258.892 86.5613 255.365 86.2741C251.958 85.9968 249.418 84.2204 247.834 81.5089C244.57 75.9182 245.288 65.6652 254.55 57.9795L248.802 51.0535C236.7 61.0958 234.236 76.0701 240.062 86.0473C243.024 91.1196 248.098 94.7124 254.634 95.2444C261.05 95.7667 268.258 93.3034 275.749 87.6544L270.33 80.4685ZM254.55 57.9795C262.671 51.24 274.591 44.4961 286.414 38.7574C298.177 33.0478 309.551 28.4731 316.378 26.0243L313.34 17.5527C306.227 20.1038 294.555 24.802 282.484 30.6608C270.473 36.4905 257.772 43.6106 248.802 51.0535L254.55 57.9795Z" fill="url(#paint0_linear_542_810)"/>
<defs>
<linearGradient id="paint0_linear_542_810" x1="-230.312" y1="134.811" x2="306.35" y2="74.1921" gradientUnits="userSpaceOnUse">
<stop stop-color="#FFF278"/>
<stop offset="1" stop-color="#F28D2F"/>
</linearGradient>
</defs>
</svg>
