<svg width="148" height="155" viewBox="0 0 148 155" fill="none" xmlns="http://www.w3.org/2000/svg">
<rect width="148" height="148" rx="41.0443" fill="#ECFDF5"/>
<g filter="url(#filter0_dd_542_828)">
<rect x="12" y="12" width="124" height="124" rx="41.0443" fill="#83CD29" shape-rendering="crispEdges"/>
<path d="M73.9999 115.892C72.7763 115.892 71.5742 115.595 70.5144 115.03L59.423 108.965C57.7677 108.109 58.5743 107.807 59.1217 107.63C60.8822 107.128 62.5678 106.424 64.1394 105.536C64.271 105.479 64.4159 105.455 64.5604 105.465C64.705 105.475 64.8444 105.519 64.9654 105.592L73.4881 110.269C73.6468 110.347 73.8236 110.387 74.0032 110.387C74.1827 110.387 74.3595 110.347 74.5182 110.269L107.754 92.5488C107.909 92.4628 108.038 92.3408 108.127 92.195C108.216 92.0492 108.263 91.8845 108.262 91.717V56.27C108.262 56.0998 108.215 55.9326 108.125 55.7842C108.035 55.6359 107.905 55.5115 107.747 55.4231L74.5117 37.7176C74.355 37.6361 74.1782 37.5932 73.9983 37.5932C73.8184 37.5932 73.6416 37.6361 73.4849 37.7176L40.2688 55.4291C40.1104 55.5157 39.9788 55.6386 39.8869 55.7859C39.795 55.9332 39.7458 56.0999 39.7441 56.27V91.702C39.7445 91.8691 39.7931 92.0331 39.8847 92.1772C39.9763 92.3212 40.1078 92.4402 40.2656 92.5219L49.3811 97.3814C54.321 99.6616 57.3466 96.9745 57.3466 94.2754V59.2922C57.3466 59.0541 57.4489 58.8258 57.6312 58.6574C57.8134 58.4891 58.0606 58.3945 58.3184 58.3945H62.5295C62.7872 58.3945 63.0344 58.4891 63.2166 58.6574C63.3989 58.8258 63.5013 59.0541 63.5013 59.2922V94.2784C63.5013 100.368 59.9121 103.854 53.6602 103.854C50.9631 103.897 48.3082 103.231 46.0057 101.933L37.2692 97.3036C36.2086 96.7331 35.3286 95.9156 34.717 94.9326C34.1054 93.9497 33.7836 92.8358 33.7837 91.702V56.27C33.7806 55.1345 34.101 54.0182 34.7128 53.0334C35.3247 52.0485 36.2063 51.2297 37.2692 50.6594L70.5079 32.9329C71.5786 32.3918 72.7795 32.1082 73.9999 32.1082C75.2204 32.1082 76.4212 32.3918 77.4919 32.9329L110.727 50.6594C111.788 51.2288 112.668 52.0452 113.28 53.027C113.892 54.0089 114.215 55.1219 114.216 56.255V91.702C114.214 92.8358 113.891 93.9493 113.279 94.932C112.667 95.9147 111.787 96.7323 110.727 97.3036L77.4919 115.03C76.4302 115.596 75.2257 115.893 73.9999 115.892Z" fill="white"/>
<path d="M67.6948 79.8455C67.6948 79.6075 67.7972 79.3791 67.9795 79.2108C68.1617 79.0424 68.4089 78.9478 68.6666 78.9478H72.9652C73.1949 78.9485 73.4169 79.0243 73.5918 79.1618C73.7667 79.2993 73.8833 79.4896 73.9208 79.6989C74.5687 83.7415 76.5123 85.7793 85.3005 85.7793C92.3007 85.7793 95.2841 84.3161 95.2841 80.8839C95.2841 78.9059 94.4387 77.4367 83.5578 76.4522C74.4618 75.6204 68.8383 73.7592 68.8383 67.0444C68.8383 60.8503 74.4909 57.1548 83.9659 57.1548C94.6136 57.1548 99.884 60.569 100.551 67.8942C100.561 68.0165 100.544 68.1394 100.501 68.2554C100.458 68.3714 100.389 68.4779 100.3 68.5685C100.21 68.6591 100.102 68.7317 99.9806 68.782C99.8594 68.8323 99.7285 68.8591 99.5957 68.8607H95.2679C95.0508 68.8579 94.841 68.788 94.6719 68.6622C94.5028 68.5364 94.3842 68.3619 94.335 68.1665C93.3017 63.9144 90.7718 62.5559 83.9692 62.5559C76.3244 62.5559 75.4368 65.0156 75.4368 66.8589C75.4368 69.0911 76.4863 69.7435 86.8068 71.0032C97.0204 72.251 101.873 74.0165 101.873 80.6475C101.873 87.3383 95.8348 91.1685 85.3038 91.1685C70.743 91.1864 67.6948 85.0193 67.6948 79.8455Z" fill="white"/>
</g>
<defs>
<filter id="filter0_dd_542_828" x="2.87904" y="12" width="142.242" height="142.242" filterUnits="userSpaceOnUse" color-interpolation-filters="sRGB">
<feFlood flood-opacity="0" result="BackgroundImageFix"/>
<feColorMatrix in="SourceAlpha" type="matrix" values="0 0 0 0 0 0 0 0 0 0 0 0 0 0 0 0 0 0 127 0" result="hardAlpha"/>
<feOffset dy="9.12096"/>
<feGaussianBlur stdDeviation="4.56048"/>
<feComposite in2="hardAlpha" operator="out"/>
<feColorMatrix type="matrix" values="0 0 0 0 0.513726 0 0 0 0 0.803922 0 0 0 0 0.160784 0 0 0 0.2 0"/>
<feBlend mode="normal" in2="BackgroundImageFix" result="effect1_dropShadow_542_828"/>
<feColorMatrix in="SourceAlpha" type="matrix" values="0 0 0 0 0 0 0 0 0 0 0 0 0 0 0 0 0 0 127 0" result="hardAlpha"/>
<feOffset dy="9.12096"/>
<feGaussianBlur stdDeviation="4.56048"/>
<feComposite in2="hardAlpha" operator="out"/>
<feColorMatrix type="matrix" values="0 0 0 0 0.513726 0 0 0 0 0.803922 0 0 0 0 0.160784 0 0 0 0.2 0"/>
<feBlend mode="normal" in2="effect1_dropShadow_542_828" result="effect2_dropShadow_542_828"/>
<feBlend mode="normal" in="SourceGraphic" in2="effect2_dropShadow_542_828" result="shape"/>
</filter>
</defs>
</svg>
