<svg width="148" height="155" viewBox="0 0 148 155" fill="none" xmlns="http://www.w3.org/2000/svg">
<rect width="148" height="148" rx="41.0443" fill="#EFF6FF"/>
<g filter="url(#filter0_dd_542_835)">
<rect x="12" y="12" width="124" height="124" rx="41.0443" fill="#00618A" shape-rendering="crispEdges"/>
<path d="M25.8243 95.2133H29.0744V81.765L34.1058 93.4887C34.6995 94.9078 35.5121 95.4098 37.1057 95.4098C38.6996 95.4098 39.4808 94.9078 40.0747 93.4887L45.106 81.765V95.2133H48.3563V81.787C48.3563 80.4772 47.856 79.8439 46.8249 79.5167C44.3561 78.7089 42.6997 79.4074 41.9496 81.154L37.0121 92.7244L32.2307 81.154C31.512 79.4074 29.8244 78.7089 27.3557 79.5167C26.3243 79.8439 25.8243 80.4772 25.8243 81.787V95.2133Z" fill="white"/>
<path d="M51.0576 84.2665H54.3067V91.6755C54.2763 92.0781 54.4299 93.0227 56.2104 93.0522C57.1187 93.067 63.2207 93.0522 63.2777 93.0522V84.2305H66.5343C66.5492 84.2305 66.531 96.2607 66.5313 96.3119C66.5492 99.2789 63.018 99.9233 61.3904 99.9732H51.1282V97.6822C51.1462 97.6822 61.3828 97.6843 61.4086 97.6817C63.5004 97.4501 63.2534 96.3607 63.2531 95.994V95.1008H56.3452C53.1314 95.0698 51.0847 93.6001 51.0594 91.9092C51.0571 91.7524 51.1287 84.3405 51.0576 84.2665Z" fill="white"/>
<path d="M69.04 95.2115H78.3838C79.4776 95.2115 80.5403 94.9715 81.3841 94.5565C82.7902 93.88 83.4778 92.9632 83.4778 91.7621V89.2735C83.4778 88.291 82.6966 87.3739 81.1652 86.7629C80.3525 86.4352 79.3526 86.2607 78.3838 86.2607H74.4461C73.1339 86.2607 72.5088 85.8459 72.3526 84.9291C72.3212 84.8199 72.3212 84.7323 72.3212 84.6233V83.0736C72.3212 82.986 72.3212 82.8985 72.3526 82.7895C72.5088 82.091 72.8527 81.8942 74.0088 81.7852C74.1027 81.7852 74.2274 81.7632 74.3213 81.7632H83.6028V79.4932H74.4775C73.165 79.4932 72.4774 79.5804 71.8525 79.7767C69.9149 80.4099 69.0712 81.4142 69.0712 83.1608V85.1474C69.0712 86.6757 70.7276 87.9855 73.5087 88.291C73.8215 88.3127 74.1338 88.3345 74.4461 88.3345H77.8212C77.9465 88.3345 78.0715 88.3345 78.1651 88.3565C79.1964 88.444 79.6338 88.6402 79.9466 89.0333C80.1339 89.2295 80.1964 89.4263 80.1964 89.6445V91.6311C80.1964 91.8714 80.0402 92.1771 79.7279 92.4389C79.4465 92.7009 78.9778 92.8757 78.3527 92.9194C78.2277 92.9194 78.134 92.9412 78.009 92.9412H69.04V95.2115Z" fill="#E48E00"/>
<path d="M103.75 91.2601C103.75 93.5959 105.406 94.906 108.75 95.168C109.062 95.1898 109.375 95.2115 109.687 95.2115H118.156V92.9412H109.625C107.719 92.9412 107 92.4389 107 91.2384V79.4932H103.75V91.2601Z" fill="#E48E00"/>
<path d="M85.5498 91.3798V83.2855C85.5498 81.2292 86.9278 79.982 89.652 79.5882C89.9339 79.5447 90.2472 79.5227 90.5289 79.5227H96.698C97.0111 79.5227 97.2933 79.5447 97.6063 79.5882C100.331 79.982 101.709 81.2292 101.709 83.2855V91.3798C101.709 93.0481 101.123 93.9411 99.7748 94.5229L102.976 97.5509H99.2025L96.6125 95.101L94.005 95.2742H90.5289C89.9339 95.2742 89.3078 95.1864 88.6187 94.9896C86.552 94.399 85.5498 93.2614 85.5498 91.3798ZM89.0578 91.183C89.0578 91.2926 89.0889 91.4018 89.1203 91.5331C89.3081 92.4737 90.1536 92.9988 91.4375 92.9988H94.3902L91.6779 90.4331H95.4516L97.8172 92.6708C98.253 92.4273 98.54 92.055 98.6402 91.5768C98.6713 91.4676 98.6713 91.3581 98.6713 91.2488V83.4826C98.6713 83.3951 98.6713 83.2855 98.6402 83.176C98.4521 82.3011 97.6066 81.7981 96.3541 81.7981H91.4375C89.9972 81.7981 89.0578 82.4544 89.0578 83.4826V91.183Z" fill="#E48E00"/>
<path d="M119.278 78.8423C117.28 78.7855 115.754 78.9802 114.449 79.5567C114.078 79.7206 113.487 79.7248 113.427 80.2117C113.63 80.4356 113.662 80.7697 113.824 81.045C114.135 81.5732 114.661 82.281 115.131 82.6523C115.643 83.0578 116.172 83.4917 116.721 83.8428C117.699 84.4676 118.791 84.8243 119.732 85.4501C120.287 85.819 120.838 86.2836 121.379 86.7C121.647 86.9058 121.827 87.2259 122.175 87.3547C122.175 87.3351 122.175 87.3152 122.175 87.2953C121.992 87.0516 121.945 86.7164 121.777 86.4618C121.531 86.2041 121.285 85.946 121.038 85.688C120.316 84.6837 119.4 83.8017 118.425 83.0689C117.648 82.4844 115.909 81.695 115.585 80.7474C115.566 80.7275 115.547 80.7076 115.528 80.6878C116.079 80.6228 116.724 80.4138 117.233 80.2711C118.087 80.0311 118.85 80.0932 119.732 79.8545C120.13 79.7354 120.527 79.6161 120.925 79.4973C120.925 79.4177 120.925 79.3387 120.925 79.2592C120.479 78.7797 120.161 78.1453 119.675 77.7115C118.403 76.5765 117.015 75.4425 115.585 74.4969C114.792 73.9725 113.812 73.6317 112.972 73.1872C112.689 73.0378 112.193 72.9601 112.006 72.711C111.565 72.1213 111.324 71.3739 110.984 70.687C110.271 69.2482 109.57 67.6767 108.939 66.163C108.508 65.1307 108.226 64.1126 107.689 63.1865C105.11 58.7427 102.333 56.0604 98.0318 53.424C97.1167 52.8634 96.0148 52.6419 94.8504 52.3526C94.2258 52.313 93.6006 52.2731 92.9758 52.2335C92.5944 52.0665 92.1976 51.5775 91.8397 51.3406C90.4149 50.3974 86.7601 48.3457 85.7048 51.043C85.0384 52.7455 86.7006 54.4069 87.2951 55.2695C87.7125 55.8747 88.2467 56.5533 88.5448 57.2339C88.741 57.6811 88.7749 58.1297 88.9427 58.6031C89.3557 59.769 89.7148 61.0375 90.2491 62.1151C90.5191 62.6603 90.8168 63.2347 91.1582 63.7223C91.3675 64.0215 91.7261 64.1533 91.7828 64.6153C91.432 65.1296 91.412 65.928 91.2148 66.5797C90.327 69.5131 90.6619 73.1593 91.9533 75.3303C92.3497 75.9967 93.283 77.4261 94.5664 76.878C95.6891 76.3988 95.4383 74.9139 95.7594 73.6039C95.8321 73.3069 95.7875 73.0886 95.9298 72.8897C95.9298 72.9093 95.9298 72.9293 95.9298 72.9492C96.2707 73.6635 96.6116 74.3778 96.9525 75.0919C97.7092 76.3691 99.0523 77.7038 100.19 78.6044C100.781 79.0714 101.245 79.8789 102.008 80.1521C102.008 80.1322 102.008 80.1126 102.008 80.0924C101.989 80.0924 101.97 80.0924 101.951 80.0924C101.804 79.8508 101.572 79.7508 101.383 79.5567C100.939 79.1 100.444 78.5323 100.077 78.009C99.0416 76.5364 98.1268 74.9246 97.2934 73.2468C96.8953 72.4458 96.5493 71.5619 96.2137 70.7466C96.0844 70.4322 96.0859 69.957 95.8164 69.7941C95.4489 70.3916 94.9076 70.8746 94.6234 71.58C94.1688 72.7076 94.1101 74.0828 93.9418 75.5088C93.8421 75.5462 93.8864 75.5204 93.8279 75.5682C93.0368 75.3682 92.7586 74.5147 92.4648 73.7826C91.721 71.9309 91.5828 68.9493 92.2373 66.8179C92.4066 66.2665 93.1719 64.5296 92.8622 64.0202C92.7144 63.5118 92.2264 63.2178 91.9533 62.8294C91.6155 62.3492 91.2781 61.7171 91.0443 61.1626C90.4356 59.7188 90.1514 58.0981 89.5106 56.6387C89.2044 55.941 88.6863 55.2351 88.2609 54.6148C87.7899 53.9278 87.2625 53.4217 86.8975 52.5907C86.7677 52.2954 86.5913 51.8228 86.7839 51.5192C86.8451 51.3144 86.9314 51.2289 87.1248 51.1621C87.4543 50.8959 88.372 51.2507 88.7152 51.4001C89.6263 51.7966 90.3865 52.1742 91.1582 52.7098C91.5287 52.9672 91.9032 53.465 92.3509 53.6027C92.5213 53.6027 92.6918 53.6027 92.8622 53.6027C93.6619 53.7954 94.5578 53.6626 95.3049 53.9003C96.6255 54.3209 97.8089 54.9751 98.8837 55.6862C102.158 57.8526 104.835 60.9365 106.666 64.6153C106.961 65.2076 107.089 65.7729 107.348 66.4012C107.872 67.6681 108.531 68.9718 109.052 70.2108C109.572 71.4469 110.079 72.6944 110.813 73.7231C111.2 74.2638 112.692 74.5539 113.37 74.854C113.845 75.0646 114.624 75.2839 115.074 75.5682C115.934 76.1118 116.767 76.7589 117.574 77.3543C117.977 77.6518 119.216 78.3045 119.278 78.8423Z" fill="white"/>
</g>
<defs>
<filter id="filter0_dd_542_835" x="2.87904" y="12" width="142.242" height="142.242" filterUnits="userSpaceOnUse" color-interpolation-filters="sRGB">
<feFlood flood-opacity="0" result="BackgroundImageFix"/>
<feColorMatrix in="SourceAlpha" type="matrix" values="0 0 0 0 0 0 0 0 0 0 0 0 0 0 0 0 0 0 127 0" result="hardAlpha"/>
<feOffset dy="9.12096"/>
<feGaussianBlur stdDeviation="4.56048"/>
<feComposite in2="hardAlpha" operator="out"/>
<feColorMatrix type="matrix" values="0 0 0 0 0 0 0 0 0 0.380392 0 0 0 0 0.541176 0 0 0 0.2 0"/>
<feBlend mode="normal" in2="BackgroundImageFix" result="effect1_dropShadow_542_835"/>
<feColorMatrix in="SourceAlpha" type="matrix" values="0 0 0 0 0 0 0 0 0 0 0 0 0 0 0 0 0 0 127 0" result="hardAlpha"/>
<feOffset dy="9.12096"/>
<feGaussianBlur stdDeviation="4.56048"/>
<feComposite in2="hardAlpha" operator="out"/>
<feColorMatrix type="matrix" values="0 0 0 0 0 0 0 0 0 0.380392 0 0 0 0 0.541176 0 0 0 0.2 0"/>
<feBlend mode="normal" in2="effect1_dropShadow_542_835" result="effect2_dropShadow_542_835"/>
<feBlend mode="normal" in="SourceGraphic" in2="effect2_dropShadow_542_835" result="shape"/>
</filter>
</defs>
</svg>
