<svg width="80" height="80" viewBox="0 0 80 80" fill="none" xmlns="http://www.w3.org/2000/svg">
<rect x="80" y="80" width="80" height="80" rx="40" transform="rotate(-180 80 80)" fill="#F59E0B"/>
<path fill-rule="evenodd" clip-rule="evenodd" d="M35.8726 48.4725C35.5351 48.8099 35.0773 48.9995 34.6 48.9995C34.1227 48.9995 33.665 48.8099 33.3274 48.4725L26.1274 41.2725C25.79 40.9349 25.6004 40.4772 25.6004 39.9999C25.6004 39.5226 25.79 39.0648 26.1274 38.7273L33.3274 31.5273C33.6669 31.1994 34.1216 31.018 34.5935 31.0221C35.0655 31.0262 35.517 31.2155 35.8507 31.5492C36.1844 31.883 36.3737 32.3344 36.3778 32.8064C36.3819 33.2783 36.2005 33.733 35.8726 34.0725L31.7452 38.1999H52.6C53.0774 38.1999 53.5353 38.3895 53.8728 38.7271C54.2104 39.0647 54.4 39.5225 54.4 39.9999C54.4 40.4773 54.2104 40.9351 53.8728 41.2727C53.5353 41.6103 53.0774 41.7999 52.6 41.7999H31.7452L35.8726 45.9273C36.2101 46.2648 36.3996 46.7226 36.3996 47.1999C36.3996 47.6772 36.2101 48.1349 35.8726 48.4725Z" fill="white"/>
</svg>
