<svg width="80" height="80" viewBox="0 0 80 80" fill="none" xmlns="http://www.w3.org/2000/svg">
<rect width="80" height="80" rx="40" fill="#F59E0B"/>
<path fill-rule="evenodd" clip-rule="evenodd" d="M44.1274 31.5275C44.4649 31.1901 44.9227 31.0005 45.4 31.0005C45.8773 31.0005 46.335 31.1901 46.6726 31.5275L53.8726 38.7275C54.21 39.0651 54.3996 39.5228 54.3996 40.0001C54.3996 40.4774 54.21 40.9352 53.8726 41.2727L46.6726 48.4727C46.3331 48.8006 45.8784 48.982 45.4065 48.9779C44.9345 48.9738 44.483 48.7845 44.1493 48.4508C43.8156 48.117 43.6263 47.6656 43.6222 47.1936C43.6181 46.7217 43.7995 46.267 44.1274 45.9275L48.2548 41.8001H27.4C26.9226 41.8001 26.4647 41.6105 26.1272 41.2729C25.7896 40.9353 25.6 40.4775 25.6 40.0001C25.6 39.5227 25.7896 39.0649 26.1272 38.7273C26.4647 38.3897 26.9226 38.2001 27.4 38.2001H48.2548L44.1274 34.0727C43.7899 33.7352 43.6004 33.2774 43.6004 32.8001C43.6004 32.3228 43.7899 31.8651 44.1274 31.5275Z" fill="white"/>
</svg>
