<svg width="136" height="22" viewBox="0 0 136 22" fill="none" xmlns="http://www.w3.org/2000/svg">
<path d="M0 16.9741L4.84975 0H9.45701L14.2825 16.9741H11.5909L10.4755 12.9731H3.8313L2.71586 16.9741H0ZM4.48602 10.5482H9.82074L7.34737 1.62467H6.95939L4.48602 10.5482Z" fill="#111827"/>
<path d="M22.2079 17.3136C21.0601 17.3136 20.0174 17.0711 19.0798 16.5861C18.1583 16.1012 17.4228 15.398 16.8732 14.4765C16.3397 13.5551 16.0729 12.4477 16.0729 11.1544V10.8392C16.0729 9.54593 16.3397 8.44665 16.8732 7.54136C17.4228 6.61991 18.1583 5.9167 19.0798 5.43172C20.0174 4.93058 21.0601 4.68001 22.2079 4.68001C23.3556 4.68001 24.3337 4.89017 25.142 5.31048C25.9503 5.73079 26.5969 6.28851 27.0819 6.98364C27.583 7.67877 27.9063 8.44665 28.0518 9.28727L25.627 9.7965C25.5461 9.26302 25.3764 8.77805 25.1177 8.34157C24.8591 7.90509 24.4953 7.55753 24.0265 7.29887C23.5577 7.04022 22.9677 6.91089 22.2564 6.91089C21.5612 6.91089 20.9308 7.07255 20.365 7.39587C19.8153 7.70302 19.3789 8.15566 19.0555 8.7538C18.7322 9.33577 18.5706 10.0471 18.5706 10.8877V11.1059C18.5706 11.9466 18.7322 12.6659 19.0555 13.2641C19.3789 13.8622 19.8153 14.3148 20.365 14.622C20.9308 14.9291 21.5612 15.0827 22.2564 15.0827C23.3072 15.0827 24.1074 14.816 24.657 14.2825C25.2066 13.7329 25.5542 13.0377 25.6997 12.1971L28.1246 12.7548C27.9306 13.5793 27.583 14.3391 27.0819 15.0342C26.5969 15.7294 25.9503 16.2871 25.142 16.7074C24.3337 17.1115 23.3556 17.3136 22.2079 17.3136Z" fill="#111827"/>
<path d="M31.0052 16.9741V0H33.5029V6.7169H33.8909C34.0525 6.40975 34.2788 6.11069 34.5698 5.8197C34.877 5.52872 35.273 5.29431 35.758 5.11649C36.2591 4.9225 36.8896 4.8255 37.6494 4.8255C38.5547 4.8255 39.3549 5.02758 40.05 5.43172C40.7613 5.83587 41.319 6.40975 41.7232 7.15338C42.1273 7.88085 42.3294 8.76188 42.3294 9.7965V16.9741H39.8318V9.99049C39.8318 8.95587 39.5731 8.19608 39.0558 7.7111C38.5385 7.20996 37.8272 6.95939 36.9219 6.95939C35.8873 6.95939 35.0548 7.29887 34.4243 7.97784C33.81 8.6568 33.5029 9.64292 33.5029 10.9362V16.9741H31.0052Z" fill="#111827"/>
<path d="M50.0784 16.9741C49.3509 16.9741 48.769 16.7559 48.3325 16.3194C47.9122 15.8829 47.702 15.301 47.702 14.5735V7.12913H44.4042V5.01949H47.702V1.06695H50.1996V5.01949H53.7642V7.12913H50.1996V14.137C50.1996 14.622 50.426 14.8645 50.8786 14.8645H53.3762V16.9741H50.0784Z" fill="#111827"/>
<path d="M61.7525 17.3136C60.54 17.3136 59.4812 17.063 58.5759 16.5619C57.6706 16.0446 56.9593 15.3252 56.442 14.4038C55.9409 13.4661 55.6903 12.383 55.6903 11.1544V10.8634C55.6903 9.61867 55.9409 8.53556 56.442 7.61411C56.9431 6.67649 57.6383 5.95711 58.5274 5.45597C59.4327 4.93866 60.4754 4.68001 61.6555 4.68001C62.8033 4.68001 63.8055 4.93866 64.6623 5.45597C65.5353 5.95711 66.2142 6.66032 66.6992 7.56561C67.1842 8.4709 67.4267 9.52976 67.4267 10.7422V11.6879H58.2364C58.2687 12.7387 58.6163 13.5793 59.2791 14.2098C59.9581 14.8241 60.7987 15.1312 61.801 15.1312C62.7386 15.1312 63.4418 14.9211 63.9106 14.5008C64.3956 14.0804 64.7674 13.5955 65.0261 13.0458L67.0872 14.1128C66.8609 14.5654 66.5295 15.0423 66.093 15.5435C65.6727 16.0446 65.115 16.4649 64.4198 16.8044C63.7247 17.1439 62.8356 17.3136 61.7525 17.3136ZM58.2607 9.77225H64.8806C64.8159 8.86696 64.4926 8.16375 63.9106 7.66261C63.3286 7.1453 62.5688 6.88665 61.6312 6.88665C60.6936 6.88665 59.9257 7.1453 59.3276 7.66261C58.7456 8.16375 58.39 8.86696 58.2607 9.77225Z" fill="#111827"/>
<path d="M70.4331 16.9741V5.01949H72.8823V6.8139H73.2702C73.4966 6.32893 73.9007 5.87628 74.4827 5.45597C75.0647 5.03566 75.9295 4.8255 77.0773 4.8255C77.9826 4.8255 78.7828 5.02758 79.4779 5.43172C80.1892 5.83587 80.7469 6.40975 81.1511 7.15338C81.5552 7.88085 81.7573 8.76188 81.7573 9.7965V16.9741H79.2597V9.99049C79.2597 8.95587 79.001 8.19608 78.4837 7.7111C77.9664 7.20996 77.2551 6.95939 76.3498 6.95939C75.3152 6.95939 74.4827 7.29887 73.8522 7.97784C73.2379 8.6568 72.9308 9.64292 72.9308 10.9362V16.9741H70.4331Z" fill="#111827"/>
<path d="M92.2627 17.3136C91.0988 17.3136 90.2016 17.1035 89.5711 16.6831C88.9568 16.2628 88.4961 15.794 88.1889 15.2767H87.8009V16.9741H85.3518V0H87.8494V6.64416H88.2374C88.4314 6.32084 88.6901 6.01369 89.0134 5.72271C89.3367 5.41556 89.7651 5.16498 90.2986 4.97099C90.832 4.777 91.4867 4.68001 92.2627 4.68001C93.265 4.68001 94.1864 4.9225 95.0271 5.40747C95.8677 5.89245 96.5386 6.59566 97.0397 7.51711C97.5409 8.43857 97.7914 9.53784 97.7914 10.8149V11.1787C97.7914 12.4719 97.5328 13.5793 97.0155 14.5008C96.5143 15.406 95.8434 16.1012 95.0028 16.5861C94.1784 17.0711 93.265 17.3136 92.2627 17.3136ZM91.5352 15.1312C92.6184 15.1312 93.5075 14.7837 94.2026 14.0885C94.9139 13.3934 95.2696 12.3992 95.2696 11.1059V10.8877C95.2696 9.61059 94.922 8.62447 94.2269 7.92934C93.5317 7.23421 92.6345 6.88665 91.5352 6.88665C90.4683 6.88665 89.5792 7.23421 88.8679 7.92934C88.1728 8.62447 87.8252 9.61059 87.8252 10.8877V11.1059C87.8252 12.3992 88.1728 13.3934 88.8679 14.0885C89.5792 14.7837 90.4683 15.1312 91.5352 15.1312Z" fill="#111827"/>
<path d="M106.366 17.3136C105.154 17.3136 104.095 17.063 103.19 16.5619C102.285 16.0446 101.573 15.3252 101.056 14.4038C100.555 13.4661 100.304 12.383 100.304 11.1544V10.8634C100.304 9.61867 100.555 8.53556 101.056 7.61411C101.557 6.67649 102.252 5.95711 103.141 5.45597C104.047 4.93866 105.089 4.68001 106.269 4.68001C107.417 4.68001 108.419 4.93866 109.276 5.45597C110.149 5.95711 110.828 6.66032 111.313 7.56561C111.798 8.4709 112.041 9.52976 112.041 10.7422V11.6879H102.85C102.883 12.7387 103.23 13.5793 103.893 14.2098C104.572 14.8241 105.413 15.1312 106.415 15.1312C107.353 15.1312 108.056 14.9211 108.525 14.5008C109.01 14.0804 109.381 13.5955 109.64 13.0458L111.701 14.1128C111.475 14.5654 111.143 15.0423 110.707 15.5435C110.287 16.0446 109.729 16.4649 109.034 16.8044C108.339 17.1439 107.45 17.3136 106.366 17.3136ZM102.875 9.77225H109.494C109.43 8.86696 109.106 8.16375 108.525 7.66261C107.943 7.1453 107.183 6.88665 106.245 6.88665C105.308 6.88665 104.54 7.1453 103.942 7.66261C103.36 8.16375 103.004 8.86696 102.875 9.77225Z" fill="#111827"/>
<path d="M115.047 16.9741V5.01949H117.496V6.42592H117.884C118.078 5.92478 118.385 5.56105 118.806 5.33473C119.242 5.09224 119.776 4.97099 120.406 4.97099H121.837V7.22613H120.309C119.501 7.22613 118.838 7.45245 118.321 7.90509C117.803 8.34157 117.545 9.02054 117.545 9.94199V16.9741H115.047Z" fill="#111827"/>
<path d="M123.416 11.0574V10.6937C123.416 9.43277 123.667 8.35774 124.168 7.46862C124.685 6.5795 125.364 5.89245 126.205 5.40747C127.046 4.9225 127.967 4.68001 128.969 4.68001C130.133 4.68001 131.022 4.89825 131.637 5.33473C132.267 5.7712 132.728 6.24001 133.019 6.74115H133.407V5.01949H135.832V19.4233C135.832 20.1507 135.613 20.7327 135.177 21.1692C134.757 21.6056 134.175 21.8239 133.431 21.8239H125.38V19.6415H132.655C133.124 19.6415 133.358 19.399 133.358 18.914V15.107H132.97C132.792 15.398 132.542 15.697 132.219 16.0042C131.895 16.3113 131.467 16.5619 130.933 16.7559C130.416 16.9499 129.761 17.0469 128.969 17.0469C127.967 17.0469 127.037 16.8125 126.181 16.3437C125.34 15.8587 124.669 15.1716 124.168 14.2825C123.667 13.3772 123.416 12.3022 123.416 11.0574ZM129.648 14.8645C130.731 14.8645 131.62 14.525 132.316 13.846C133.027 13.1509 133.383 12.1971 133.383 10.9847V10.7664C133.383 9.52168 133.035 8.56789 132.34 7.90509C131.645 7.22613 130.747 6.88665 129.648 6.88665C128.581 6.88665 127.692 7.22613 126.981 7.90509C126.286 8.56789 125.938 9.52168 125.938 10.7664V10.9847C125.938 12.1971 126.286 13.1509 126.981 13.846C127.692 14.525 128.581 14.8645 129.648 14.8645Z" fill="#111827"/>
</svg>
